  <svg
    width="20"
    height="18"
    viewBox="0 0 20 18"
    fill="none"
    xmlns="http://www.w3.org/2000/svg"
  >
    <path
      d="M4.94 2C4.93974 2.53043 4.72877 3.03904 4.35351 3.41392C3.97825 3.78881 3.46944 3.99927 2.939 3.999C2.40857 3.99874 1.89997 3.78777 1.52508 3.41251C1.1502 3.03725 0.939737 2.52843 0.940003 1.998C0.940268 1.46757 1.15124 0.958965 1.5265 0.58408C1.90176 0.209195 2.41057 -0.00126442 2.941 -0.0009992C3.47144 -0.000733984 3.98004 0.210234 4.35492 0.585494C4.72981 0.960755 4.94027 1.46957 4.94 2ZM5 5.48H1V18H5V5.48ZM11.32 5.48H7.34V18H11.28V11.43C11.28 7.77 16.05 7.43 16.05 11.43V18H20V10.07C20 3.9 12.94 4.13 11.28 7.16L11.32 5.48Z"
      fill="white"
    />
  </svg>